<mxfile host="app.diagrams.net" modified="2021-02-08T19:55:40.459Z" agent="5.0 (Windows NT 10.0; Win64; x64) AppleWebKit/537.36 (KHTML, like Gecko) Chrome/87.0.4280.141 Safari/537.36 OPR/73.0.3856.344" etag="xC4nn0Mb4nrMJGfPW1OV" version="14.3.0" type="github">
  <diagram id="C5RBs43oDa-KdzZeNtuy" name="Page-1">
    <mxGraphModel dx="1779" dy="1807" grid="1" gridSize="10" guides="1" tooltips="1" connect="1" arrows="1" fold="1" page="1" pageScale="1" pageWidth="827" pageHeight="1169" math="0" shadow="0">
      <root>
        <mxCell id="WIyWlLk6GJQsqaUBKTNV-0" />
        <mxCell id="WIyWlLk6GJQsqaUBKTNV-1" parent="WIyWlLk6GJQsqaUBKTNV-0" />
        <mxCell id="WIyWlLk6GJQsqaUBKTNV-3" value="Customer" style="rounded=1;whiteSpace=wrap;html=1;fontSize=12;glass=0;strokeWidth=1;shadow=0;arcSize=0;" parent="WIyWlLk6GJQsqaUBKTNV-1" vertex="1">
          <mxGeometry x="590" y="190" width="120" height="40" as="geometry" />
        </mxCell>
        <mxCell id="WIyWlLk6GJQsqaUBKTNV-7" value="Produkter" style="rounded=1;whiteSpace=wrap;html=1;fontSize=12;glass=0;strokeWidth=1;shadow=0;" parent="WIyWlLk6GJQsqaUBKTNV-1" vertex="1">
          <mxGeometry x="200" y="160" width="120" height="40" as="geometry" />
        </mxCell>
        <mxCell id="WIyWlLk6GJQsqaUBKTNV-11" value="Order" style="rounded=1;whiteSpace=wrap;html=1;fontSize=12;glass=0;strokeWidth=1;shadow=0;" parent="WIyWlLk6GJQsqaUBKTNV-1" vertex="1">
          <mxGeometry x="450" y="545" width="120" height="40" as="geometry" />
        </mxCell>
        <mxCell id="WIyWlLk6GJQsqaUBKTNV-12" value="Shipping" style="rounded=1;whiteSpace=wrap;html=1;fontSize=12;glass=0;strokeWidth=1;shadow=0;" parent="WIyWlLk6GJQsqaUBKTNV-1" vertex="1">
          <mxGeometry x="130" y="470" width="120" height="40" as="geometry" />
        </mxCell>
        <mxCell id="3QwTx4KCRu-NrBKLFWg--5" value="Adress" style="ellipse;whiteSpace=wrap;html=1;" vertex="1" parent="WIyWlLk6GJQsqaUBKTNV-1">
          <mxGeometry x="710" width="120" height="80" as="geometry" />
        </mxCell>
        <mxCell id="3QwTx4KCRu-NrBKLFWg--6" value="Mejl" style="ellipse;whiteSpace=wrap;html=1;" vertex="1" parent="WIyWlLk6GJQsqaUBKTNV-1">
          <mxGeometry x="770" y="140" width="120" height="80" as="geometry" />
        </mxCell>
        <mxCell id="3QwTx4KCRu-NrBKLFWg--7" value="Account" style="ellipse;whiteSpace=wrap;html=1;" vertex="1" parent="WIyWlLk6GJQsqaUBKTNV-1">
          <mxGeometry x="740" y="260" width="120" height="80" as="geometry" />
        </mxCell>
        <mxCell id="3QwTx4KCRu-NrBKLFWg--8" value="" style="rounded=0;html=1;jettySize=auto;orthogonalLoop=1;fontSize=11;endArrow=block;endFill=0;endSize=8;strokeWidth=1;shadow=0;labelBackgroundColor=none;edgeStyle=orthogonalEdgeStyle;exitX=0.808;exitY=1;exitDx=0;exitDy=0;exitPerimeter=0;entryX=-0.008;entryY=0.375;entryDx=0;entryDy=0;entryPerimeter=0;" edge="1" parent="WIyWlLk6GJQsqaUBKTNV-1" source="WIyWlLk6GJQsqaUBKTNV-3" target="3QwTx4KCRu-NrBKLFWg--7">
          <mxGeometry relative="1" as="geometry">
            <mxPoint x="720" y="300" as="sourcePoint" />
            <mxPoint x="660" y="240" as="targetPoint" />
          </mxGeometry>
        </mxCell>
        <mxCell id="3QwTx4KCRu-NrBKLFWg--9" value="" style="rounded=0;html=1;jettySize=auto;orthogonalLoop=1;fontSize=11;endArrow=block;endFill=0;endSize=8;strokeWidth=1;shadow=0;labelBackgroundColor=none;edgeStyle=orthogonalEdgeStyle;exitX=1;exitY=0.5;exitDx=0;exitDy=0;entryX=0;entryY=0.5;entryDx=0;entryDy=0;" edge="1" parent="WIyWlLk6GJQsqaUBKTNV-1" source="WIyWlLk6GJQsqaUBKTNV-3" target="3QwTx4KCRu-NrBKLFWg--6">
          <mxGeometry relative="1" as="geometry">
            <mxPoint x="726.96" y="210" as="sourcePoint" />
            <mxPoint x="749.04" y="300" as="targetPoint" />
          </mxGeometry>
        </mxCell>
        <mxCell id="3QwTx4KCRu-NrBKLFWg--10" value="" style="rounded=0;html=1;jettySize=auto;orthogonalLoop=1;fontSize=11;endArrow=block;endFill=0;endSize=8;strokeWidth=1;shadow=0;labelBackgroundColor=none;edgeStyle=orthogonalEdgeStyle;exitX=0.75;exitY=0;exitDx=0;exitDy=0;entryX=0.075;entryY=0.763;entryDx=0;entryDy=0;entryPerimeter=0;" edge="1" parent="WIyWlLk6GJQsqaUBKTNV-1" source="WIyWlLk6GJQsqaUBKTNV-3" target="3QwTx4KCRu-NrBKLFWg--5">
          <mxGeometry relative="1" as="geometry">
            <mxPoint x="736.96" y="220" as="sourcePoint" />
            <mxPoint x="759.04" y="310" as="targetPoint" />
          </mxGeometry>
        </mxCell>
        <mxCell id="3QwTx4KCRu-NrBKLFWg--12" value="OrderID" style="ellipse;whiteSpace=wrap;html=1;" vertex="1" parent="WIyWlLk6GJQsqaUBKTNV-1">
          <mxGeometry x="340" y="640" width="120" height="80" as="geometry" />
        </mxCell>
        <mxCell id="3QwTx4KCRu-NrBKLFWg--13" value="OrderDate" style="ellipse;whiteSpace=wrap;html=1;" vertex="1" parent="WIyWlLk6GJQsqaUBKTNV-1">
          <mxGeometry x="520" y="650" width="120" height="80" as="geometry" />
        </mxCell>
        <mxCell id="3QwTx4KCRu-NrBKLFWg--14" value="" style="endArrow=none;html=1;exitX=0.792;exitY=0.113;exitDx=0;exitDy=0;exitPerimeter=0;entryX=0.422;entryY=1.044;entryDx=0;entryDy=0;entryPerimeter=0;" edge="1" parent="WIyWlLk6GJQsqaUBKTNV-1" source="3QwTx4KCRu-NrBKLFWg--12" target="WIyWlLk6GJQsqaUBKTNV-11">
          <mxGeometry width="50" height="50" relative="1" as="geometry">
            <mxPoint x="426" y="860" as="sourcePoint" />
            <mxPoint x="476" y="810" as="targetPoint" />
          </mxGeometry>
        </mxCell>
        <mxCell id="3QwTx4KCRu-NrBKLFWg--15" value="" style="endArrow=none;html=1;exitX=0.242;exitY=0.063;exitDx=0;exitDy=0;exitPerimeter=0;entryX=0.75;entryY=1;entryDx=0;entryDy=0;" edge="1" parent="WIyWlLk6GJQsqaUBKTNV-1" source="3QwTx4KCRu-NrBKLFWg--13" target="WIyWlLk6GJQsqaUBKTNV-11">
          <mxGeometry width="50" height="50" relative="1" as="geometry">
            <mxPoint x="445.03999999999996" y="879.04" as="sourcePoint" />
            <mxPoint x="486" y="820" as="targetPoint" />
          </mxGeometry>
        </mxCell>
        <mxCell id="3QwTx4KCRu-NrBKLFWg--16" value="DHL" style="ellipse;whiteSpace=wrap;html=1;" vertex="1" parent="WIyWlLk6GJQsqaUBKTNV-1">
          <mxGeometry x="160" y="560" width="120" height="80" as="geometry" />
        </mxCell>
        <mxCell id="3QwTx4KCRu-NrBKLFWg--17" value="PostNord" style="ellipse;whiteSpace=wrap;html=1;" vertex="1" parent="WIyWlLk6GJQsqaUBKTNV-1">
          <mxGeometry x="-40" y="530" width="120" height="80" as="geometry" />
        </mxCell>
        <mxCell id="3QwTx4KCRu-NrBKLFWg--18" value="UPS" style="ellipse;whiteSpace=wrap;html=1;" vertex="1" parent="WIyWlLk6GJQsqaUBKTNV-1">
          <mxGeometry x="-60" y="380" width="120" height="80" as="geometry" />
        </mxCell>
        <mxCell id="3QwTx4KCRu-NrBKLFWg--19" value="" style="endArrow=none;html=1;exitX=0.5;exitY=1;exitDx=0;exitDy=0;entryX=0.333;entryY=0;entryDx=0;entryDy=0;entryPerimeter=0;" edge="1" parent="WIyWlLk6GJQsqaUBKTNV-1" source="WIyWlLk6GJQsqaUBKTNV-12" target="3QwTx4KCRu-NrBKLFWg--16">
          <mxGeometry width="50" height="50" relative="1" as="geometry">
            <mxPoint x="330" y="420" as="sourcePoint" />
            <mxPoint x="380" y="370" as="targetPoint" />
          </mxGeometry>
        </mxCell>
        <mxCell id="3QwTx4KCRu-NrBKLFWg--21" value="" style="endArrow=none;html=1;exitX=0.1;exitY=1.05;exitDx=0;exitDy=0;entryX=1;entryY=0;entryDx=0;entryDy=0;exitPerimeter=0;" edge="1" parent="WIyWlLk6GJQsqaUBKTNV-1" source="WIyWlLk6GJQsqaUBKTNV-12" target="3QwTx4KCRu-NrBKLFWg--17">
          <mxGeometry width="50" height="50" relative="1" as="geometry">
            <mxPoint x="200" y="520" as="sourcePoint" />
            <mxPoint x="209.96000000000004" y="570" as="targetPoint" />
          </mxGeometry>
        </mxCell>
        <mxCell id="3QwTx4KCRu-NrBKLFWg--22" value="" style="endArrow=none;html=1;exitX=0.183;exitY=0.025;exitDx=0;exitDy=0;entryX=1;entryY=0.5;entryDx=0;entryDy=0;exitPerimeter=0;" edge="1" parent="WIyWlLk6GJQsqaUBKTNV-1" source="WIyWlLk6GJQsqaUBKTNV-12" target="3QwTx4KCRu-NrBKLFWg--18">
          <mxGeometry width="50" height="50" relative="1" as="geometry">
            <mxPoint x="152" y="522" as="sourcePoint" />
            <mxPoint x="122.42640687119297" y="566.7157287525381" as="targetPoint" />
          </mxGeometry>
        </mxCell>
        <mxCell id="3QwTx4KCRu-NrBKLFWg--23" style="edgeStyle=orthogonalEdgeStyle;rounded=0;orthogonalLoop=1;jettySize=auto;html=1;exitX=0.5;exitY=1;exitDx=0;exitDy=0;" edge="1" parent="WIyWlLk6GJQsqaUBKTNV-1" source="3QwTx4KCRu-NrBKLFWg--18" target="3QwTx4KCRu-NrBKLFWg--18">
          <mxGeometry relative="1" as="geometry" />
        </mxCell>
        <mxCell id="3QwTx4KCRu-NrBKLFWg--24" value="Price" style="ellipse;whiteSpace=wrap;html=1;" vertex="1" parent="WIyWlLk6GJQsqaUBKTNV-1">
          <mxGeometry x="280" y="40" width="120" height="80" as="geometry" />
        </mxCell>
        <mxCell id="3QwTx4KCRu-NrBKLFWg--25" value="Catigories" style="ellipse;whiteSpace=wrap;html=1;" vertex="1" parent="WIyWlLk6GJQsqaUBKTNV-1">
          <mxGeometry x="110" y="40" width="120" height="80" as="geometry" />
        </mxCell>
        <mxCell id="3QwTx4KCRu-NrBKLFWg--26" value="Description" style="ellipse;whiteSpace=wrap;html=1;" vertex="1" parent="WIyWlLk6GJQsqaUBKTNV-1">
          <mxGeometry x="30" y="160" width="120" height="80" as="geometry" />
        </mxCell>
        <mxCell id="3QwTx4KCRu-NrBKLFWg--27" value="Storage" style="ellipse;whiteSpace=wrap;html=1;" vertex="1" parent="WIyWlLk6GJQsqaUBKTNV-1">
          <mxGeometry x="140" y="240" width="120" height="80" as="geometry" />
        </mxCell>
        <mxCell id="3QwTx4KCRu-NrBKLFWg--28" value="" style="endArrow=none;html=1;entryX=0.347;entryY=1.03;entryDx=0;entryDy=0;entryPerimeter=0;exitX=0.69;exitY=0.005;exitDx=0;exitDy=0;exitPerimeter=0;" edge="1" parent="WIyWlLk6GJQsqaUBKTNV-1" source="3QwTx4KCRu-NrBKLFWg--27" target="WIyWlLk6GJQsqaUBKTNV-7">
          <mxGeometry width="50" height="50" relative="1" as="geometry">
            <mxPoint x="210" y="220" as="sourcePoint" />
            <mxPoint x="260" y="170" as="targetPoint" />
          </mxGeometry>
        </mxCell>
        <mxCell id="3QwTx4KCRu-NrBKLFWg--29" value="" style="endArrow=none;html=1;entryX=0;entryY=0.57;entryDx=0;entryDy=0;entryPerimeter=0;exitX=1;exitY=0.5;exitDx=0;exitDy=0;" edge="1" parent="WIyWlLk6GJQsqaUBKTNV-1" source="3QwTx4KCRu-NrBKLFWg--26" target="WIyWlLk6GJQsqaUBKTNV-7">
          <mxGeometry width="50" height="50" relative="1" as="geometry">
            <mxPoint x="210" y="220" as="sourcePoint" />
            <mxPoint x="260" y="170" as="targetPoint" />
          </mxGeometry>
        </mxCell>
        <mxCell id="3QwTx4KCRu-NrBKLFWg--30" value="" style="endArrow=none;html=1;exitX=0.817;exitY=0.9;exitDx=0;exitDy=0;exitPerimeter=0;entryX=0.417;entryY=0;entryDx=0;entryDy=0;entryPerimeter=0;" edge="1" parent="WIyWlLk6GJQsqaUBKTNV-1" source="3QwTx4KCRu-NrBKLFWg--25" target="WIyWlLk6GJQsqaUBKTNV-7">
          <mxGeometry width="50" height="50" relative="1" as="geometry">
            <mxPoint x="210" y="220" as="sourcePoint" />
            <mxPoint x="260" y="170" as="targetPoint" />
          </mxGeometry>
        </mxCell>
        <mxCell id="3QwTx4KCRu-NrBKLFWg--31" value="" style="endArrow=none;html=1;exitX=0.333;exitY=0.995;exitDx=0;exitDy=0;exitPerimeter=0;entryX=0.677;entryY=-0.02;entryDx=0;entryDy=0;entryPerimeter=0;" edge="1" parent="WIyWlLk6GJQsqaUBKTNV-1" source="3QwTx4KCRu-NrBKLFWg--24" target="WIyWlLk6GJQsqaUBKTNV-7">
          <mxGeometry width="50" height="50" relative="1" as="geometry">
            <mxPoint x="210" y="220" as="sourcePoint" />
            <mxPoint x="260" y="170" as="targetPoint" />
          </mxGeometry>
        </mxCell>
        <mxCell id="3QwTx4KCRu-NrBKLFWg--32" value="Payment" style="rounded=1;whiteSpace=wrap;html=1;fontSize=12;glass=0;strokeWidth=1;shadow=0;arcSize=0;" vertex="1" parent="WIyWlLk6GJQsqaUBKTNV-1">
          <mxGeometry x="780" y="630" width="120" height="40" as="geometry" />
        </mxCell>
        <mxCell id="3QwTx4KCRu-NrBKLFWg--33" value="Cart" style="ellipse;whiteSpace=wrap;html=1;" vertex="1" parent="WIyWlLk6GJQsqaUBKTNV-1">
          <mxGeometry x="880" y="470" width="120" height="80" as="geometry" />
        </mxCell>
        <mxCell id="3QwTx4KCRu-NrBKLFWg--34" value="Currency" style="ellipse;whiteSpace=wrap;html=1;" vertex="1" parent="WIyWlLk6GJQsqaUBKTNV-1">
          <mxGeometry x="940" y="610" width="120" height="80" as="geometry" />
        </mxCell>
        <mxCell id="3QwTx4KCRu-NrBKLFWg--35" value="InvoiceID" style="ellipse;whiteSpace=wrap;html=1;" vertex="1" parent="WIyWlLk6GJQsqaUBKTNV-1">
          <mxGeometry x="910" y="730" width="120" height="80" as="geometry" />
        </mxCell>
        <mxCell id="3QwTx4KCRu-NrBKLFWg--36" value="" style="rounded=0;html=1;jettySize=auto;orthogonalLoop=1;fontSize=11;endArrow=block;endFill=0;endSize=8;strokeWidth=1;shadow=0;labelBackgroundColor=none;edgeStyle=orthogonalEdgeStyle;exitX=0.808;exitY=1;exitDx=0;exitDy=0;exitPerimeter=0;entryX=-0.008;entryY=0.375;entryDx=0;entryDy=0;entryPerimeter=0;" edge="1" source="3QwTx4KCRu-NrBKLFWg--32" target="3QwTx4KCRu-NrBKLFWg--35" parent="WIyWlLk6GJQsqaUBKTNV-1">
          <mxGeometry relative="1" as="geometry">
            <mxPoint x="890" y="770" as="sourcePoint" />
            <mxPoint x="830" y="710" as="targetPoint" />
          </mxGeometry>
        </mxCell>
        <mxCell id="3QwTx4KCRu-NrBKLFWg--37" value="" style="rounded=0;html=1;jettySize=auto;orthogonalLoop=1;fontSize=11;endArrow=block;endFill=0;endSize=8;strokeWidth=1;shadow=0;labelBackgroundColor=none;edgeStyle=orthogonalEdgeStyle;exitX=1;exitY=0.5;exitDx=0;exitDy=0;entryX=0;entryY=0.5;entryDx=0;entryDy=0;" edge="1" source="3QwTx4KCRu-NrBKLFWg--32" target="3QwTx4KCRu-NrBKLFWg--34" parent="WIyWlLk6GJQsqaUBKTNV-1">
          <mxGeometry relative="1" as="geometry">
            <mxPoint x="896.96" y="680" as="sourcePoint" />
            <mxPoint x="919.04" y="770" as="targetPoint" />
          </mxGeometry>
        </mxCell>
        <mxCell id="3QwTx4KCRu-NrBKLFWg--38" value="" style="rounded=0;html=1;jettySize=auto;orthogonalLoop=1;fontSize=11;endArrow=block;endFill=0;endSize=8;strokeWidth=1;shadow=0;labelBackgroundColor=none;edgeStyle=orthogonalEdgeStyle;exitX=0.75;exitY=0;exitDx=0;exitDy=0;entryX=0.075;entryY=0.763;entryDx=0;entryDy=0;entryPerimeter=0;" edge="1" source="3QwTx4KCRu-NrBKLFWg--32" target="3QwTx4KCRu-NrBKLFWg--33" parent="WIyWlLk6GJQsqaUBKTNV-1">
          <mxGeometry relative="1" as="geometry">
            <mxPoint x="906.96" y="690" as="sourcePoint" />
            <mxPoint x="929.04" y="780" as="targetPoint" />
          </mxGeometry>
        </mxCell>
        <mxCell id="3QwTx4KCRu-NrBKLFWg--41" value="Custumers_Mail" style="ellipse;whiteSpace=wrap;html=1;" vertex="1" parent="WIyWlLk6GJQsqaUBKTNV-1">
          <mxGeometry x="400" y="-120" width="120" height="80" as="geometry" />
        </mxCell>
        <mxCell id="3QwTx4KCRu-NrBKLFWg--42" value="SALE" style="ellipse;whiteSpace=wrap;html=1;" vertex="1" parent="WIyWlLk6GJQsqaUBKTNV-1">
          <mxGeometry x="620" y="-140" width="120" height="80" as="geometry" />
        </mxCell>
        <mxCell id="3QwTx4KCRu-NrBKLFWg--45" value="" style="rounded=0;html=1;jettySize=auto;orthogonalLoop=1;fontSize=11;endArrow=block;endFill=0;endSize=8;strokeWidth=1;shadow=0;labelBackgroundColor=none;edgeStyle=orthogonalEdgeStyle;exitX=1;exitY=0.5;exitDx=0;exitDy=0;entryX=0;entryY=0.5;entryDx=0;entryDy=0;" edge="1" source="3QwTx4KCRu-NrBKLFWg--69" target="3QwTx4KCRu-NrBKLFWg--42" parent="WIyWlLk6GJQsqaUBKTNV-1">
          <mxGeometry relative="1" as="geometry">
            <mxPoint x="590" y="130" as="sourcePoint" />
            <mxPoint x="589.04" y="110" as="targetPoint" />
          </mxGeometry>
        </mxCell>
        <mxCell id="3QwTx4KCRu-NrBKLFWg--46" value="" style="rounded=0;html=1;jettySize=auto;orthogonalLoop=1;fontSize=11;endArrow=block;endFill=0;endSize=8;strokeWidth=1;shadow=0;labelBackgroundColor=none;edgeStyle=orthogonalEdgeStyle;exitX=0.5;exitY=0;exitDx=0;exitDy=0;entryX=0.075;entryY=0.763;entryDx=0;entryDy=0;entryPerimeter=0;" edge="1" source="3QwTx4KCRu-NrBKLFWg--69" target="3QwTx4KCRu-NrBKLFWg--41" parent="WIyWlLk6GJQsqaUBKTNV-1">
          <mxGeometry relative="1" as="geometry">
            <mxPoint x="560" y="110" as="sourcePoint" />
            <mxPoint x="599.04" y="120" as="targetPoint" />
          </mxGeometry>
        </mxCell>
        <mxCell id="3QwTx4KCRu-NrBKLFWg--47" value="" style="endArrow=none;html=1;exitX=1;exitY=0.5;exitDx=0;exitDy=0;entryX=0;entryY=0.25;entryDx=0;entryDy=0;" edge="1" parent="WIyWlLk6GJQsqaUBKTNV-1" source="WIyWlLk6GJQsqaUBKTNV-12" target="WIyWlLk6GJQsqaUBKTNV-11">
          <mxGeometry width="50" height="50" relative="1" as="geometry">
            <mxPoint x="400" y="480" as="sourcePoint" />
            <mxPoint x="450" y="430" as="targetPoint" />
          </mxGeometry>
        </mxCell>
        <mxCell id="3QwTx4KCRu-NrBKLFWg--49" value="" style="endArrow=none;html=1;entryX=0.5;entryY=1;entryDx=0;entryDy=0;exitX=0.653;exitY=-0.059;exitDx=0;exitDy=0;exitPerimeter=0;" edge="1" parent="WIyWlLk6GJQsqaUBKTNV-1" source="WIyWlLk6GJQsqaUBKTNV-11" target="3QwTx4KCRu-NrBKLFWg--64">
          <mxGeometry width="50" height="50" relative="1" as="geometry">
            <mxPoint x="400" y="480" as="sourcePoint" />
            <mxPoint x="450" y="430" as="targetPoint" />
          </mxGeometry>
        </mxCell>
        <mxCell id="3QwTx4KCRu-NrBKLFWg--51" value="" style="endArrow=none;html=1;entryX=0;entryY=0.5;entryDx=0;entryDy=0;exitX=1;exitY=0.75;exitDx=0;exitDy=0;" edge="1" parent="WIyWlLk6GJQsqaUBKTNV-1" source="WIyWlLk6GJQsqaUBKTNV-11" target="3QwTx4KCRu-NrBKLFWg--32">
          <mxGeometry width="50" height="50" relative="1" as="geometry">
            <mxPoint x="400" y="480" as="sourcePoint" />
            <mxPoint x="450" y="430" as="targetPoint" />
          </mxGeometry>
        </mxCell>
        <mxCell id="3QwTx4KCRu-NrBKLFWg--52" value="" style="endArrow=none;html=1;entryX=0.75;entryY=1;entryDx=0;entryDy=0;exitX=0;exitY=0.5;exitDx=0;exitDy=0;" edge="1" parent="WIyWlLk6GJQsqaUBKTNV-1" source="3QwTx4KCRu-NrBKLFWg--64" target="WIyWlLk6GJQsqaUBKTNV-7">
          <mxGeometry width="50" height="50" relative="1" as="geometry">
            <mxPoint x="400" y="480" as="sourcePoint" />
            <mxPoint x="450" y="430" as="targetPoint" />
          </mxGeometry>
        </mxCell>
        <mxCell id="3QwTx4KCRu-NrBKLFWg--54" value="" style="endArrow=none;html=1;entryX=0;entryY=0.5;entryDx=0;entryDy=0;exitX=1;exitY=0.5;exitDx=0;exitDy=0;" edge="1" parent="WIyWlLk6GJQsqaUBKTNV-1" source="WIyWlLk6GJQsqaUBKTNV-7" target="3QwTx4KCRu-NrBKLFWg--69">
          <mxGeometry width="50" height="50" relative="1" as="geometry">
            <mxPoint x="250" y="430" as="sourcePoint" />
            <mxPoint x="470" y="130" as="targetPoint" />
          </mxGeometry>
        </mxCell>
        <mxCell id="3QwTx4KCRu-NrBKLFWg--57" value="Administrator" style="rounded=1;whiteSpace=wrap;html=1;fontSize=12;glass=0;strokeWidth=1;shadow=0;arcSize=0;" vertex="1" parent="WIyWlLk6GJQsqaUBKTNV-1">
          <mxGeometry x="200" y="-90" width="120" height="40" as="geometry" />
        </mxCell>
        <mxCell id="3QwTx4KCRu-NrBKLFWg--58" value="SERVER" style="ellipse;whiteSpace=wrap;html=1;" vertex="1" parent="WIyWlLk6GJQsqaUBKTNV-1">
          <mxGeometry x="310" y="-270" width="120" height="80" as="geometry" />
        </mxCell>
        <mxCell id="3QwTx4KCRu-NrBKLFWg--63" value="" style="rounded=0;html=1;jettySize=auto;orthogonalLoop=1;fontSize=11;endArrow=block;endFill=0;endSize=8;strokeWidth=1;shadow=0;labelBackgroundColor=none;edgeStyle=orthogonalEdgeStyle;exitX=1;exitY=0.5;exitDx=0;exitDy=0;entryX=0.5;entryY=1;entryDx=0;entryDy=0;" edge="1" parent="WIyWlLk6GJQsqaUBKTNV-1" source="3QwTx4KCRu-NrBKLFWg--57" target="3QwTx4KCRu-NrBKLFWg--58">
          <mxGeometry relative="1" as="geometry">
            <mxPoint x="406.96000000000004" y="-290" as="sourcePoint" />
            <mxPoint x="429.03999999999996" y="-200" as="targetPoint" />
          </mxGeometry>
        </mxCell>
        <mxCell id="3QwTx4KCRu-NrBKLFWg--65" style="edgeStyle=orthogonalEdgeStyle;rounded=0;orthogonalLoop=1;jettySize=auto;html=1;exitX=0.5;exitY=0;exitDx=0;exitDy=0;entryX=0.5;entryY=1;entryDx=0;entryDy=0;" edge="1" parent="WIyWlLk6GJQsqaUBKTNV-1" source="WIyWlLk6GJQsqaUBKTNV-7" target="3QwTx4KCRu-NrBKLFWg--57">
          <mxGeometry relative="1" as="geometry" />
        </mxCell>
        <mxCell id="3QwTx4KCRu-NrBKLFWg--64" value="Purchase" style="rhombus;whiteSpace=wrap;html=1;" vertex="1" parent="WIyWlLk6GJQsqaUBKTNV-1">
          <mxGeometry x="470" y="340" width="80" height="80" as="geometry" />
        </mxCell>
        <mxCell id="3QwTx4KCRu-NrBKLFWg--67" value="" style="endArrow=none;html=1;entryX=0.392;entryY=0.975;entryDx=0;entryDy=0;entryPerimeter=0;exitX=0.5;exitY=0;exitDx=0;exitDy=0;" edge="1" parent="WIyWlLk6GJQsqaUBKTNV-1" source="3QwTx4KCRu-NrBKLFWg--64" target="WIyWlLk6GJQsqaUBKTNV-3">
          <mxGeometry width="50" height="50" relative="1" as="geometry">
            <mxPoint x="660" y="390" as="sourcePoint" />
            <mxPoint x="710" y="340" as="targetPoint" />
          </mxGeometry>
        </mxCell>
        <mxCell id="3QwTx4KCRu-NrBKLFWg--69" value="&lt;span&gt;NewsLetters&lt;/span&gt;" style="rhombus;whiteSpace=wrap;html=1;" vertex="1" parent="WIyWlLk6GJQsqaUBKTNV-1">
          <mxGeometry x="490" y="80" width="80" height="80" as="geometry" />
        </mxCell>
        <mxCell id="3QwTx4KCRu-NrBKLFWg--70" value="" style="endArrow=none;html=1;entryX=0.5;entryY=1;entryDx=0;entryDy=0;exitX=0.403;exitY=-0.017;exitDx=0;exitDy=0;exitPerimeter=0;" edge="1" parent="WIyWlLk6GJQsqaUBKTNV-1" source="WIyWlLk6GJQsqaUBKTNV-3" target="3QwTx4KCRu-NrBKLFWg--69">
          <mxGeometry width="50" height="50" relative="1" as="geometry">
            <mxPoint x="638.3600000000001" y="189.32000000000016" as="sourcePoint" />
            <mxPoint x="520.04" y="151" as="targetPoint" />
          </mxGeometry>
        </mxCell>
      </root>
    </mxGraphModel>
  </diagram>
</mxfile>
